<svg xmlns="http://www.w3.org/2000/svg" viewBox="0 0 32 32" role="img" aria-hidden="true">
  <defs>
    <linearGradient id="navioMark" x1="6" y1="5" x2="26" y2="27" gradientUnits="userSpaceOnUse">
      <stop stop-color="#00d4ff"/>
      <stop offset="0.5" stop-color="#6366f1"/>
      <stop offset="1" stop-color="#7c3aed"/>
    </linearGradient>
  </defs>
  <path fill="url(#navioMark)" d="M16 6.5l6.8 11.2h-3.4v9.2a.8.8 0 01-1.5.3c-.5-1-1.5-1.6-2.9-1.6s-2.4.6-2.9 1.6a.8.8 0 01-1.5-.3v-9.2H9.2L16 6.5z"/>
  <path fill="url(#navioMark)" opacity="0.88" d="M8.5 25.2c2.1-2.2 4.7-2.2 7.5-.4 2.8 1.8 5.4 1.8 7.5-.4v1.3c-2.5 2-5.5 2-8.3.2-.9-.5-1.8-.8-2.7-.8s-1.8.3-2.7.8c-2.8 1.8-5.8 1.8-8.3-.2v-1.3z"/>
</svg>
